<svg id="Layer_1" data-name="Layer 1" xmlns="http://www.w3.org/2000/svg" viewBox="0 0 290.16 210"><defs><style>.cls-1{fill:#fff;}</style></defs><title>badge-4</title><path class="cls-1" d="M175.51,19.5H129.16c-16.75,3.87-17.11,17.37-17.11,17.37V82.5h17.83V41c0-3.53,3.56-4.16,3.56-4.16h42.07Zm-35.23,24s-3.47-.33-3.47,2.64V59.37h22.9v4a1.92,1.92,0,0,1-2.08,2H136.81V82.5h25s15.13-2.25,15.26-17.19V43.51Z"/><path class="cls-1" d="M83.65,123.16c-.57.38-1,.65-1.3.83a22.16,22.16,0,0,1-3,1.57,9.94,9.94,0,0,1-3.7.84A13.36,13.36,0,0,1,66.2,123a11.24,11.24,0,0,1-3.77-8.68,12.53,12.53,0,0,1,3.4-8.76,10.74,10.74,0,0,1,8.26-3.69,14,14,0,0,1,4.29.71,11.92,11.92,0,0,1,4.77,2.7L81,107.61a8.37,8.37,0,0,0-3.52-1.94,12.19,12.19,0,0,0-3.47-.46,7.23,7.23,0,0,0-5.72,2.71,9.79,9.79,0,0,0-2.29,6.5,8.11,8.11,0,0,0,2.62,6.2,9.33,9.33,0,0,0,6.66,2.49,6.9,6.9,0,0,0,3.45-1c1-.74,1.47-1.09,1.5-1.12v-5.19H72.92l1-3.24h9.69v10.64Zm22-6.33a9.26,9.26,0,0,1-15.8,6.55,8.73,8.73,0,0,1-2.75-6.53,9.31,9.31,0,0,1,2.62-6.58,8.45,8.45,0,0,1,6.42-2.78,9.18,9.18,0,0,1,6.84,2.68A9,9,0,0,1,105.67,116.83Zm-3.42,0a5.88,5.88,0,0,0-1.73-4.3,5.67,5.67,0,0,0-4.26-1.78,5.31,5.31,0,0,0-4.07,1.83,5.92,5.92,0,0,0-1.68,4.17,5.83,5.83,0,0,0,1.7,4.2,5.62,5.62,0,0,0,4.22,1.78A5.54,5.54,0,0,0,100.5,121,5.66,5.66,0,0,0,102.25,116.88Zm25.13,0a9.26,9.26,0,0,1-15.8,6.55,8.75,8.75,0,0,1-2.74-6.53,9.31,9.31,0,0,1,2.62-6.58,8.43,8.43,0,0,1,6.41-2.78,9.15,9.15,0,0,1,6.84,2.68A8.94,8.94,0,0,1,127.38,116.83Zm-3.42,0a5.87,5.87,0,0,0-1.72-4.3A5.69,5.69,0,0,0,118,110.8a5.34,5.34,0,0,0-4.07,1.83,6,6,0,0,0-1.67,4.17,5.83,5.83,0,0,0,1.7,4.2,5.61,5.61,0,0,0,4.22,1.78,5.54,5.54,0,0,0,4.07-1.75A5.65,5.65,0,0,0,124,116.88Zm23.52,8.71-3.15.48v-3l-.67.76a8,8,0,0,1-2,1.37,8.13,8.13,0,0,1-3.42.73,8.26,8.26,0,0,1-6.24-2.68,9,9,0,0,1-2.54-6.4,9.37,9.37,0,0,1,2.52-6.58,8,8,0,0,1,6.16-2.74,8.9,8.9,0,0,1,3.65.69,6.23,6.23,0,0,1,1.87,1.29l.52.71v-7.9l3.35-.48Zm-2.95-8.53a6,6,0,0,0-1.82-4.48,5.67,5.67,0,0,0-4.17-1.85,5.48,5.48,0,0,0-4.22,1.74,6,6,0,0,0-1.52,4.08,6.43,6.43,0,0,0,1.57,4.45,5.12,5.12,0,0,0,4,1.75,6.24,6.24,0,0,0,4.24-1.62A5.24,5.24,0,0,0,144.53,117.06Zm20.6-11.47h-9.36v6.3H163v3.24h-7.26v10.43l-3.65.53V102.32H164.4Zm7.51-1.85-2.25,2.81-2.14-2.81,2.27-2.78ZM172,125.59l-3.35.45V108.45l3.35-.51Zm15.1-17.82-1.57,3.59a5.56,5.56,0,0,0-.63,0,6.35,6.35,0,0,0-1,.08,3.7,3.7,0,0,0-1.05.35,4,4,0,0,0-1.82,2,7.75,7.75,0,0,0-.88,3.62v8.25l-3.34.53V108.45l3.09-.56v3.67c.4-.63.83-1.26,1.23-1.92a5,5,0,0,1,2-1.42,9.73,9.73,0,0,1,2.23-.38,10.08,10.08,0,0,1,1.72-.07ZM212,125.59l-3.34.48V114a3.37,3.37,0,0,0-.75-2.43,3,3,0,0,0-2.22-.76,3,3,0,0,0-2.68,1.45,4.05,4.05,0,0,0-.62,2.07v11.24l-3.34.61v-12.1a3.63,3.63,0,0,0-.73-2.43,2.53,2.53,0,0,0-2-.84H196a2.67,2.67,0,0,0-2.55,1.47,5.85,5.85,0,0,0-.6,2.81v10.48l-3.46.61V108.45l3.12-.53v2.25a6.38,6.38,0,0,1,1-1.26,4.44,4.44,0,0,1,3.12-1.25,5.53,5.53,0,0,1,3,.64,5.46,5.46,0,0,1,1.67,2.07,5.51,5.51,0,0,1,4.92-2.71,5.41,5.41,0,0,1,4.57,1.93,7.57,7.57,0,0,1,1.22,4.68Zm15.28-5.35a5.17,5.17,0,0,1-1.72,4,6.11,6.11,0,0,1-4.35,1.57,7.08,7.08,0,0,1-3.57-.91,6.64,6.64,0,0,1-2.39-2.1l2.34-2.07a5,5,0,0,0,.48.6,4.24,4.24,0,0,0,3.14,1.34,2.9,2.9,0,0,0,2-.65,2.26,2.26,0,0,0,.72-1.83c0-.88-.57-1.49-1.72-1.82-2.27-.68-3.49-1.06-3.67-1.14a6.3,6.3,0,0,1-2.27-1.72,5.35,5.35,0,0,1,.9-6.73,5.79,5.79,0,0,1,4-1.49,6.89,6.89,0,0,1,3.27.78,5.48,5.48,0,0,1,2.14,1.75l-2,2.15a7.1,7.1,0,0,0-1-.81,4,4,0,0,0-2.29-.84,3,3,0,0,0-1.73.46,1.94,1.94,0,0,0-.79,1.67,1.72,1.72,0,0,0,.77,1.57,10.9,10.9,0,0,0,2.89.91,6.78,6.78,0,0,1,3.47,1.82A4.59,4.59,0,0,1,227.26,120.24Z"/><path class="cls-1" d="M64.66,162.37a.36.36,0,0,1-.11-.27v-8.82h-3a.41.41,0,0,1-.28-.11.42.42,0,0,1-.11-.29v-1.2a.46.46,0,0,1,.1-.29.4.4,0,0,1,.29-.11h8.17a.38.38,0,0,1,.4.4v1.2a.38.38,0,0,1-.4.4H66.82v8.82a.4.4,0,0,1-.11.27.38.38,0,0,1-.28.11h-1.5A.37.37,0,0,1,64.66,162.37Z"/><path class="cls-1" d="M70.9,161.68A3.71,3.71,0,0,1,69.79,159v-1.4A3.73,3.73,0,0,1,70.91,155a4.08,4.08,0,0,1,2.9-1,4,4,0,0,1,2.88,1,3.69,3.69,0,0,1,1.12,2.65c0,.12,0,.36,0,.7s0,.58,0,.7a3.71,3.71,0,0,1-1.1,2.66,4.88,4.88,0,0,1-5.81,0Zm4.21-1.18a2.42,2.42,0,0,0,.49-1.56c0-.1,0-.31,0-.62s0-.52,0-.62a2.4,2.4,0,0,0-.5-1.56,1.6,1.6,0,0,0-1.29-.54,1.63,1.63,0,0,0-1.31.54,2.4,2.4,0,0,0-.5,1.56l0,.62,0,.62a2.42,2.42,0,0,0,.5,1.56,1.65,1.65,0,0,0,1.31.52A1.62,1.62,0,0,0,75.11,160.5Z"/><path class="cls-1" d="M79.73,165.42a.36.36,0,0,1-.11-.28V154.55a.36.36,0,0,1,.11-.29.41.41,0,0,1,.27-.1h1.28a.42.42,0,0,1,.29.11.41.41,0,0,1,.11.28v.63A2.94,2.94,0,0,1,84.22,154a3.09,3.09,0,0,1,2.49,1,4.31,4.31,0,0,1,.92,2.72c0,.13,0,.32,0,.58s0,.45,0,.58a4.25,4.25,0,0,1-.92,2.71,3.07,3.07,0,0,1-2.49,1,2.87,2.87,0,0,1-2.44-1.13v3.63a.39.39,0,0,1-.11.28.37.37,0,0,1-.28.1H80A.36.36,0,0,1,79.73,165.42Zm5.71-6.62c0-.11,0-.27,0-.48s0-.37,0-.48c-.07-1.41-.68-2.11-1.82-2.11a1.61,1.61,0,0,0-1.36.59,2.49,2.49,0,0,0-.48,1.44c0,.13,0,.33,0,.61s0,.48,0,.62a2.17,2.17,0,0,0,.49,1.36,1.63,1.63,0,0,0,1.35.56C84.76,160.91,85.37,160.21,85.44,158.8Z"/><path class="cls-1" d="M94.34,162l-1.89-10.26,0-.12a.34.34,0,0,1,.34-.34h1.44a.47.47,0,0,1,.3.07.36.36,0,0,1,.13.25L96,158.8l1.42-4.64a.55.55,0,0,1,.53-.4h.88a.49.49,0,0,1,.34.12.62.62,0,0,1,.17.28l1.44,4.64,1.31-7.2c0-.21.19-.32.45-.32H104a.3.3,0,0,1,.23.1.32.32,0,0,1,.09.24.41.41,0,0,1,0,.12L102.37,162a.49.49,0,0,1-.19.35.56.56,0,0,1-.39.13h-1.08a.53.53,0,0,1-.37-.12.61.61,0,0,1-.2-.28l-1.79-5.31-1.79,5.31a.53.53,0,0,1-.56.4H94.91A.54.54,0,0,1,94.34,162Z"/><path class="cls-1" d="M106.38,161.62a4.15,4.15,0,0,1-1.12-2.92v-.4a4.51,4.51,0,0,1,1-3.15,4.28,4.28,0,0,1,5.84,0,4.47,4.47,0,0,1,1,3.07v.34a.37.37,0,0,1-.11.27.38.38,0,0,1-.29.11h-5.31v.13a2.49,2.49,0,0,0,.48,1.48,1.53,1.53,0,0,0,1.26.59,1.82,1.82,0,0,0,1.49-.74,1.08,1.08,0,0,1,.22-.22.85.85,0,0,1,.27,0h1.41a.41.41,0,0,1,.25.08.28.28,0,0,1,.1.23,1.49,1.49,0,0,1-.45.9,3.84,3.84,0,0,1-1.31.91,4.79,4.79,0,0,1-2,.38A3.89,3.89,0,0,1,106.38,161.62Zm4.58-4v0a2.31,2.31,0,0,0-.47-1.51,1.6,1.6,0,0,0-1.29-.57,1.57,1.57,0,0,0-1.28.57,2.31,2.31,0,0,0-.46,1.51v0Z"/><path class="cls-1" d="M117,161.51v.59a.37.37,0,0,1-.12.27.39.39,0,0,1-.28.11h-1.29a.38.38,0,0,1-.38-.38V151.51a.4.4,0,0,1,.11-.29.45.45,0,0,1,.27-.1h1.4a.43.43,0,0,1,.28.1.39.39,0,0,1,.1.29v3.55a3,3,0,0,1,2.45-1.06,3.06,3.06,0,0,1,2.49,1.05,4.34,4.34,0,0,1,.92,2.74c0,.13,0,.31,0,.53s0,.39,0,.53a4.46,4.46,0,0,1-.93,2.76,3.46,3.46,0,0,1-5-.1Zm3.76-2.71c0-.11,0-.27,0-.48s0-.37,0-.48c-.08-1.41-.69-2.11-1.83-2.11a1.64,1.64,0,0,0-1.34.56,2.2,2.2,0,0,0-.5,1.36c0,.13,0,.33,0,.62s0,.48,0,.61a2.44,2.44,0,0,0,.48,1.44,1.58,1.58,0,0,0,1.36.59C120,160.91,120.63,160.21,120.71,158.8Z"/><path class="cls-1" d="M128.64,162.37a.4.4,0,0,1-.11-.27V151.68a.41.41,0,0,1,.1-.29.39.39,0,0,1,.28-.11h3.91c3.14,0,4.75,1.45,4.81,4.35,0,.62,0,1,0,1.25s0,.61,0,1.23a4.46,4.46,0,0,1-1.21,3.31,5,5,0,0,1-3.52,1.06h-4A.39.39,0,0,1,128.64,162.37Zm4.18-1.75a2.63,2.63,0,0,0,1.92-.59,2.82,2.82,0,0,0,.62-2c0-.63,0-1,0-1.2s0-.56,0-1.18a2.26,2.26,0,0,0-2.62-2.54h-2v7.48Z"/><path class="cls-1" d="M140.34,161.62a4.19,4.19,0,0,1-1.11-2.92v-.4a4.55,4.55,0,0,1,1-3.15,4.28,4.28,0,0,1,5.84,0,4.42,4.42,0,0,1,1,3.07v.34a.34.34,0,0,1-.12.27.36.36,0,0,1-.28.11h-5.32v.13a2.57,2.57,0,0,0,.49,1.48,1.52,1.52,0,0,0,1.26.59,1.82,1.82,0,0,0,1.49-.74.88.88,0,0,1,.22-.22.76.76,0,0,1,.27,0h1.41a.41.41,0,0,1,.25.08.28.28,0,0,1,.1.23,1.49,1.49,0,0,1-.45.9,3.84,3.84,0,0,1-1.31.91,4.81,4.81,0,0,1-2,.38A3.91,3.91,0,0,1,140.34,161.62Zm4.59-4v0a2.31,2.31,0,0,0-.47-1.51,1.6,1.6,0,0,0-1.29-.57,1.57,1.57,0,0,0-1.28.57,2.31,2.31,0,0,0-.47,1.51v0Z"/><path class="cls-1" d="M151.1,162.38a.75.75,0,0,1-.2-.3l-3-7.42a.54.54,0,0,1,0-.15.36.36,0,0,1,.11-.25.34.34,0,0,1,.23-.1h1.33a.43.43,0,0,1,.43.31l2.11,5.58,2.11-5.58a.41.41,0,0,1,.14-.21.37.37,0,0,1,.28-.1h1.33a.37.37,0,0,1,.24.1.38.38,0,0,1,.09.25.62.62,0,0,1,0,.15l-3,7.42a.57.57,0,0,1-.57.4h-1.22A.58.58,0,0,1,151.1,162.38Z"/><path class="cls-1" d="M158.18,161.62a4.19,4.19,0,0,1-1.11-2.92v-.4a4.55,4.55,0,0,1,1-3.15,4.28,4.28,0,0,1,5.84,0,4.42,4.42,0,0,1,1,3.07v.34a.34.34,0,0,1-.12.27.36.36,0,0,1-.28.11h-5.32v.13a2.57,2.57,0,0,0,.49,1.48,1.52,1.52,0,0,0,1.26.59,1.82,1.82,0,0,0,1.49-.74.88.88,0,0,1,.22-.22.76.76,0,0,1,.27,0h1.41a.41.41,0,0,1,.25.08.28.28,0,0,1,.1.23,1.49,1.49,0,0,1-.45.9,3.84,3.84,0,0,1-1.31.91,4.81,4.81,0,0,1-2,.38A3.91,3.91,0,0,1,158.18,161.62Zm4.59-4v0a2.31,2.31,0,0,0-.47-1.51,1.6,1.6,0,0,0-1.29-.57,1.55,1.55,0,0,0-1.28.57,2.31,2.31,0,0,0-.47,1.51v0Z"/><path class="cls-1" d="M166.8,162.37a.4.4,0,0,1-.11-.27V151.51a.4.4,0,0,1,.11-.29.43.43,0,0,1,.27-.1h1.35a.43.43,0,0,1,.28.1.39.39,0,0,1,.1.29V162.1a.36.36,0,0,1-.38.38h-1.35A.39.39,0,0,1,166.8,162.37Z"/><path class="cls-1" d="M171.71,161.68a3.71,3.71,0,0,1-1.1-2.66l0-.7,0-.7a3.69,3.69,0,0,1,1.12-2.65,4.78,4.78,0,0,1,5.77,0,3.65,3.65,0,0,1,1.12,2.65c0,.12,0,.36,0,.7s0,.58,0,.7a3.71,3.71,0,0,1-1.1,2.66,4.88,4.88,0,0,1-5.81,0Zm4.22-1.18a2.54,2.54,0,0,0,.49-1.56c0-.1,0-.31,0-.62s0-.52,0-.62a2.46,2.46,0,0,0-.5-1.56,1.62,1.62,0,0,0-1.3-.54,1.64,1.64,0,0,0-1.31.54,2.4,2.4,0,0,0-.49,1.56l0,.62,0,.62a2.42,2.42,0,0,0,.49,1.56,1.91,1.91,0,0,0,2.62,0Z"/><path class="cls-1" d="M180.54,165.42a.39.39,0,0,1-.11-.28V154.55a.4.4,0,0,1,.11-.29.45.45,0,0,1,.28-.1h1.28a.39.39,0,0,1,.28.11.38.38,0,0,1,.12.28v.63A2.93,2.93,0,0,1,185,154a3.07,3.07,0,0,1,2.48,1,4.32,4.32,0,0,1,.93,2.72c0,.13,0,.32,0,.58s0,.45,0,.58a4.25,4.25,0,0,1-.92,2.71,3.07,3.07,0,0,1-2.49,1,2.89,2.89,0,0,1-2.45-1.13v3.63a.35.35,0,0,1-.38.38h-1.39A.4.4,0,0,1,180.54,165.42Zm5.72-6.62c0-.11,0-.27,0-.48s0-.37,0-.48c-.08-1.41-.69-2.11-1.83-2.11a1.61,1.61,0,0,0-1.36.59,2.49,2.49,0,0,0-.48,1.44c0,.13,0,.33,0,.61s0,.48,0,.62a2.18,2.18,0,0,0,.5,1.36,1.61,1.61,0,0,0,1.34.56C185.57,160.91,186.18,160.21,186.26,158.8Z"/><path class="cls-1" d="M190.35,162.37a.4.4,0,0,1-.11-.27v-7.55a.4.4,0,0,1,.11-.29.45.45,0,0,1,.27-.1h1.27a.41.41,0,0,1,.28.1.39.39,0,0,1,.1.29v.54a2.8,2.8,0,0,1,2.32-1.09,2.53,2.53,0,0,1,2.48,1.43,2.87,2.87,0,0,1,1.09-1,3.1,3.1,0,0,1,1.52-.39,2.78,2.78,0,0,1,2.14.9,3.66,3.66,0,0,1,.84,2.61v4.59a.4.4,0,0,1-.11.27.38.38,0,0,1-.28.11h-1.33a.38.38,0,0,1-.38-.38v-4.47a2.08,2.08,0,0,0-.42-1.45,1.48,1.48,0,0,0-1.12-.45,1.43,1.43,0,0,0-1.06.45,2.06,2.06,0,0,0-.44,1.45v4.47a.45.45,0,0,1-.1.27.39.39,0,0,1-.28.11h-1.35a.39.39,0,0,1-.27-.11.4.4,0,0,1-.11-.27v-4.47a2.11,2.11,0,0,0-.43-1.45,1.48,1.48,0,0,0-1.11-.45,1.43,1.43,0,0,0-1.06.45,2,2,0,0,0-.44,1.45v4.47a.4.4,0,0,1-.11.27.38.38,0,0,1-.28.11h-1.36A.4.4,0,0,1,190.35,162.37Z"/><path class="cls-1" d="M205.45,161.62a4.1,4.1,0,0,1-1.11-2.92l0-.4a4.51,4.51,0,0,1,1.05-3.15,4.28,4.28,0,0,1,5.84,0,4.42,4.42,0,0,1,1,3.07v.34a.37.37,0,0,1-.11.27.38.38,0,0,1-.29.11h-5.31v.13a2.43,2.43,0,0,0,.49,1.48,1.5,1.5,0,0,0,1.25.59,1.81,1.81,0,0,0,1.49-.74,1.08,1.08,0,0,1,.22-.22.88.88,0,0,1,.28,0h1.4a.41.41,0,0,1,.25.08.28.28,0,0,1,.11.23,1.51,1.51,0,0,1-.46.9,3.79,3.79,0,0,1-1.3.91,4.87,4.87,0,0,1-2,.38A3.89,3.89,0,0,1,205.45,161.62Zm4.58-4v0a2.26,2.26,0,0,0-.47-1.51,1.73,1.73,0,0,0-2.57,0,2.31,2.31,0,0,0-.46,1.51v0Z"/><path class="cls-1" d="M214.05,162.37a.36.36,0,0,1-.11-.27v-7.55a.36.36,0,0,1,.11-.29.41.41,0,0,1,.27-.1h1.33a.43.43,0,0,1,.28.1.39.39,0,0,1,.1.29v.65a3.25,3.25,0,0,1,2.67-1.2,3,3,0,0,1,2.34,1,3.78,3.78,0,0,1,.86,2.64v4.5a.39.39,0,0,1-.1.27.38.38,0,0,1-.28.11h-1.44a.37.37,0,0,1-.27-.11.36.36,0,0,1-.11-.27v-4.4a2.15,2.15,0,0,0-.46-1.45,1.62,1.62,0,0,0-1.3-.52,1.7,1.7,0,0,0-1.32.53,2,2,0,0,0-.49,1.44v4.4a.4.4,0,0,1-.11.27.38.38,0,0,1-.28.11h-1.42A.37.37,0,0,1,214.05,162.37Z"/><path class="cls-1" d="M225.42,161.72a3.09,3.09,0,0,1-.73-2.23v-3.62h-1.27a.36.36,0,0,1-.27-.11.37.37,0,0,1-.11-.27v-.94a.41.41,0,0,1,.11-.28.4.4,0,0,1,.27-.11h1.27v-2.65a.36.36,0,0,1,.11-.29.41.41,0,0,1,.27-.1h1.33a.41.41,0,0,1,.28.1.39.39,0,0,1,.1.29v2.65h2a.38.38,0,0,1,.39.39v.94a.38.38,0,0,1-.39.38h-2v3.44a1.84,1.84,0,0,0,.24,1,.87.87,0,0,0,.79.35h1.12a.38.38,0,0,1,.28.11.37.37,0,0,1,.1.28v1a.39.39,0,0,1-.1.27.38.38,0,0,1-.28.11h-1.31A2.91,2.91,0,0,1,225.42,161.72Z"/><path class="cls-1" d="M113.05,180.71a4.38,4.38,0,0,1-1.29-3.2c0-.29,0-.76,0-1.41s0-1.14,0-1.44a4.4,4.4,0,0,1,1.3-3.19,4.73,4.73,0,0,1,3.4-1.15,5.78,5.78,0,0,1,2.48.49,3.9,3.9,0,0,1,1.64,1.33,3.5,3.5,0,0,1,.62,1.91v0a.27.27,0,0,1-.1.22.36.36,0,0,1-.24.09h-1.55a.42.42,0,0,1-.29-.09.85.85,0,0,1-.16-.32,2.21,2.21,0,0,0-.83-1.39,2.65,2.65,0,0,0-1.57-.41c-1.52,0-2.32.85-2.38,2.56,0,.28,0,.73,0,1.32s0,1.06,0,1.37c.06,1.7.86,2.55,2.38,2.55a2.74,2.74,0,0,0,1.56-.4,2.27,2.27,0,0,0,.84-1.4.85.85,0,0,1,.16-.32.48.48,0,0,1,.29-.08h1.55a.37.37,0,0,1,.25.09.28.28,0,0,1,.09.24,3.48,3.48,0,0,1-.62,1.91,3.9,3.9,0,0,1-1.64,1.33,5.78,5.78,0,0,1-2.48.49A4.76,4.76,0,0,1,113.05,180.71Z"/><path class="cls-1" d="M123.7,180.88a3.67,3.67,0,0,1-1.11-2.66v-1.4a3.69,3.69,0,0,1,1.12-2.65,4.79,4.79,0,0,1,5.78,0,3.73,3.73,0,0,1,1.12,2.65c0,.12,0,.36,0,.7s0,.58,0,.7a3.71,3.71,0,0,1-1.11,2.66,4.86,4.86,0,0,1-5.8,0Zm4.21-1.18a2.4,2.4,0,0,0,.49-1.56c0-.1,0-.31,0-.62s0-.52,0-.62a2.4,2.4,0,0,0-.5-1.56,1.83,1.83,0,0,0-2.6,0,2.4,2.4,0,0,0-.5,1.56l0,.62,0,.62a2.4,2.4,0,0,0,.5,1.56,1.65,1.65,0,0,0,1.31.52A1.62,1.62,0,0,0,127.91,179.7Z"/><path class="cls-1" d="M132.51,181.57a.4.4,0,0,1-.11-.27v-7.55a.36.36,0,0,1,.11-.28.4.4,0,0,1,.27-.11h1.27a.38.38,0,0,1,.28.11.36.36,0,0,1,.1.28v.54a2.8,2.8,0,0,1,2.32-1.09,2.53,2.53,0,0,1,2.48,1.43,2.87,2.87,0,0,1,1.09-1,3.1,3.1,0,0,1,1.52-.39,2.78,2.78,0,0,1,2.14.9,3.66,3.66,0,0,1,.84,2.61v4.59a.4.4,0,0,1-.11.27.38.38,0,0,1-.28.11H143.1a.38.38,0,0,1-.38-.38v-4.47a2.08,2.08,0,0,0-.42-1.45,1.48,1.48,0,0,0-1.12-.45,1.4,1.4,0,0,0-1.06.46,2,2,0,0,0-.44,1.44v4.47a.45.45,0,0,1-.1.27.39.39,0,0,1-.28.11H138a.39.39,0,0,1-.27-.11.4.4,0,0,1-.11-.27v-4.47a2.06,2.06,0,0,0-.43-1.44,1.45,1.45,0,0,0-1.11-.46,1.4,1.4,0,0,0-1.06.46,2,2,0,0,0-.44,1.44v4.47a.4.4,0,0,1-.11.27.38.38,0,0,1-.28.11h-1.36A.4.4,0,0,1,132.51,181.57Z"/><path class="cls-1" d="M147,184.62a.36.36,0,0,1-.12-.28V173.75a.34.34,0,0,1,.12-.28.37.37,0,0,1,.27-.11h1.28a.44.44,0,0,1,.29.11.41.41,0,0,1,.11.28v.64a2.91,2.91,0,0,1,2.54-1.19,3.06,3.06,0,0,1,2.48,1,4.26,4.26,0,0,1,.93,2.72c0,.13,0,.32,0,.58s0,.45,0,.58a4.25,4.25,0,0,1-.92,2.71,3.07,3.07,0,0,1-2.49,1,2.9,2.9,0,0,1-2.45-1.13v3.63a.39.39,0,0,1-.1.28.37.37,0,0,1-.28.1h-1.39A.36.36,0,0,1,147,184.62Zm5.71-6.62c0-.11,0-.27,0-.48s0-.37,0-.48c-.08-1.41-.68-2.11-1.83-2.11a1.62,1.62,0,0,0-1.36.59A2.64,2.64,0,0,0,149,177c0,.13,0,.33,0,.61s0,.48,0,.62a2.24,2.24,0,0,0,.5,1.36,1.63,1.63,0,0,0,1.34.56C152,180.11,152.61,179.41,152.69,178Z"/><path class="cls-1" d="M157.59,181.51a2.75,2.75,0,0,1-1.07-.88,2.14,2.14,0,0,1-.39-1.24,2.11,2.11,0,0,1,.88-1.76,5.22,5.22,0,0,1,2.41-.91l2.2-.32v-.34a1.41,1.41,0,0,0-.36-1,1.53,1.53,0,0,0-1.12-.35,1.68,1.68,0,0,0-.84.19,2.28,2.28,0,0,0-.52.4l-.27.26a.23.23,0,0,1-.24.19H157a.36.36,0,0,1-.24-.09.35.35,0,0,1-.11-.26,1.65,1.65,0,0,1,.39-.9,3,3,0,0,1,1.16-.88,4.5,4.5,0,0,1,1.94-.38,3.77,3.77,0,0,1,2.75.85,3,3,0,0,1,.87,2.22v5a.4.4,0,0,1-.11.27.38.38,0,0,1-.28.11h-1.33a.38.38,0,0,1-.38-.38v-.63a2.66,2.66,0,0,1-1,.84,3.48,3.48,0,0,1-1.6.33A3.4,3.4,0,0,1,157.59,181.51Zm3.48-1.78a2.27,2.27,0,0,0,.56-1.67v-.31L160,178c-1.23.19-1.84.6-1.84,1.23a.88.88,0,0,0,.43.79,1.76,1.76,0,0,0,1,.28A1.92,1.92,0,0,0,161.07,179.73Z"/><path class="cls-1" d="M165.94,181.57a.37.37,0,0,1-.12-.27v-7.55a.34.34,0,0,1,.12-.28.37.37,0,0,1,.27-.11h1.33a.36.36,0,0,1,.38.39v.65a3.25,3.25,0,0,1,2.67-1.2,3,3,0,0,1,2.34,1,3.83,3.83,0,0,1,.86,2.64v4.5a.39.39,0,0,1-.1.27.38.38,0,0,1-.28.11H172a.37.37,0,0,1-.27-.11.37.37,0,0,1-.12-.27v-4.4a2.15,2.15,0,0,0-.45-1.45,1.65,1.65,0,0,0-1.31-.52,1.69,1.69,0,0,0-1.31.53,2,2,0,0,0-.49,1.44v4.4a.4.4,0,0,1-.11.27.38.38,0,0,1-.28.11h-1.42A.37.37,0,0,1,165.94,181.57Z"/><path class="cls-1" d="M176.81,184.63a.31.31,0,0,1-.11-.23.6.6,0,0,1,.07-.26l1.26-3L175,173.94a.65.65,0,0,1-.06-.23.36.36,0,0,1,.11-.24.3.3,0,0,1,.24-.11h1.33a.42.42,0,0,1,.41.31l2.13,5.21,2.16-5.21a.49.49,0,0,1,.45-.31H183a.3.3,0,0,1,.24.1.28.28,0,0,1,.1.22.69.69,0,0,1-.06.26l-4.53,10.48a.46.46,0,0,1-.45.3H177A.33.33,0,0,1,176.81,184.63Z"/></svg>